# xmcd
#
# Track frame offsets:
#       150
#       14971
#       35093
#       54006
#       71263
#
# Disc length: 1179 seconds
#
# Revision: 0
# Processed by: cddbd v1.5.1PL2 Copyright (c) Steve Scherf et al.
# Submitted via: WaveLab 4.01
#
DISCID=3d049905
DTITLE=Sweet City Fire - Maryanne EP
DYEAR=1900
DGENRE=
TTITLE0=Maryanne
TTITLE1=Sweet City Fire
TTITLE2=You Really Should Know
TTITLE3=Take It Back
TTITLE4=Take It Back (Radio Edit)
EXTD=
EXTT0=
EXTT1=
EXTT2=
EXTT3=
EXTT4=
PLAYORDER=
